# xmcd CD database file
#
# Track frame offsets:
#	150
#	31604
#	68531
#	95647
#	129339
#
# Disc length: 2334 seconds
#
# Revision: 1
# Processed by: cddbd v1.5.2PL0 Copyright (c) Steve Scherf et al.
# Submitted via: CDex 1.51
#
DISCID=33091c05
DTITLE=Rusty Bryant - Rusty Rides Again
DYEAR=1980
DGENRE=Jazz
TTITLE0=Gettin' In The Groove
TTITLE1=Soft Winds
TTITLE2=St. Thomas
TTITLE3=Rusty Rides Again
TTITLE4=The Entertainer/I'm Old Fashioned
EXTD=YEAR: 1980
EXTT0=
EXTT1=
EXTT2=
EXTT3=
EXTT4=
PLAYORDER=
